# Blender v2.76 (sub 0) OBJ File: ''
# www.blender.org
mtllib anvilx+.mtl
o anvilx+
v 0.182604 0.202081 0.251540
v 0.102803 0.113179 -0.100450
v 0.182604 0.202081 -0.204571
v -0.250147 0.501416 0.251540
v -0.224670 0.348795 0.250643
v 0.000001 0.501416 0.250643
v 0.000001 0.200931 0.250643
v -0.182602 0.202081 0.251540
v 0.224672 0.348795 0.250643
v 0.250149 0.501416 0.251540
v 0.250149 0.501416 -0.204571
v 0.084323 0.382447 -0.499097
v -0.182602 0.202081 -0.204571
v -0.084321 0.382447 -0.499097
v -0.102801 0.113179 -0.100450
v -0.102801 0.113179 0.123934
v -0.250147 0.501416 -0.204571
v 0.084323 0.501416 -0.499097
v -0.084321 0.501416 -0.499097
v 0.378001 -0.345387 -0.378000
v 0.102803 0.113179 0.123934
v 0.378001 -0.345387 0.378000
v 0.378001 -0.500000 -0.378000
v -0.377999 -0.500000 -0.378000
v -0.377999 -0.345387 0.378000
v -0.377999 -0.345387 -0.378000
v 0.378001 -0.500000 0.378000
v -0.377999 -0.500000 0.378000
v 0.000001 0.411416 0.498479
v 0.074037 0.215677 0.250643
v -0.074035 0.215677 0.250643
v -0.139354 0.249824 0.250643
v 0.074037 0.481913 0.250643
v -0.074035 0.481913 0.250643
v -0.139354 0.447766 0.250643
v -0.186125 0.401449 0.250643
v 0.139356 0.249824 0.250643
v 0.181588 0.296142 0.250643
v -0.181586 0.296142 0.250643
v 0.139356 0.447766 0.250643
v 0.186127 0.401449 0.250643
vt 0.258056 0.370316
vt 0.251421 0.278272
vt 0.292293 0.280122
vt 0.369129 0.191185
vt 0.278232 0.121430
vt 0.503502 0.191616
vt 0.000000 0.000000
vt 0.379633 0.540918
vt 0.109670 0.228854
vt 0.398683 0.334127
vt 0.285500 0.540678
vt 0.411840 0.241853
vt 0.349604 0.249192
vt 0.315903 0.245068
vt 0.262211 0.237621
vt 0.311640 0.243881
vt 0.237847 0.264958
vt 0.206631 0.267930
vt 0.327739 0.215524
vt 0.324304 0.243091
vt 0.321221 0.238578
vt 0.245702 0.278963
vt 0.245618 0.289613
vt 0.236461 0.285265
vt 0.243403 0.278222
vt 0.237648 0.269752
vt 0.220656 0.268087
vt 0.238554 0.269486
vt 0.235024 0.282915
vt 0.225298 0.270913
vt 0.999880 0.190984
vt 0.524014 0.249147
vt 0.497486 0.123259
vt 0.446152 0.061982
vt 0.366184 0.000120
vt 0.363219 0.540678
vt 0.374748 0.463170
vt 0.384379 0.394302
vt 0.502146 0.289351
vt 0.450514 0.316432
vn 0.744200 -0.668000 -0.000000
vn 0.413900 -0.824200 -0.386500
vn 0.220300 -0.855300 -0.469000
vn -0.720400 0.210200 0.660900
vn -0.727200 -0.125400 0.674900
vn 0.059700 0.966300 0.250300
vn 0.005000 0.007500 1.000000
vn -0.005000 0.007500 1.000000
vn -0.003600 -0.005300 1.000000
vn 0.986400 -0.164700 0.000000
vn 0.000000 -0.852800 -0.522200
vn 0.000000 -0.814100 -0.580800
vn -0.744200 -0.668000 0.000000
vn 0.886100 -0.199900 -0.418100
vn 0.961300 -0.275600 -0.000000
vn 0.975300 -0.220100 -0.019200
vn -0.961300 -0.275600 -0.000000
vn 0.000000 1.000000 -0.000000
vn -0.703800 0.254700 0.663100
vn 0.000900 0.968600 0.248700
vn -0.986400 -0.164700 0.000000
vn 0.000000 0.000000 -1.000000
vn -0.975300 -0.220100 -0.019200
vn 0.871400 0.000000 -0.490600
vn -0.871400 0.000000 -0.490600
vn 0.857400 0.514600 0.000000
vn 0.000000 0.484600 0.874700
vn 0.000000 -0.760500 -0.649300
vn -0.857400 0.514600 0.000000
vn -0.552100 0.632400 0.543300
vn -0.662800 0.625700 0.411400
vn 0.196600 0.591300 -0.782100
vn 0.000000 0.517800 -0.855500
vn 0.539300 0.648700 -0.537000
vn 1.000000 0.000000 0.000000
vn -1.000000 0.000000 0.000000
vn 0.000000 -0.820500 0.571600
vn 0.118800 -0.745900 0.655400
vn 0.000000 -0.762200 0.647300
vn 0.255100 -0.720300 0.645100
vn -0.150100 -0.753600 0.640000
vn -0.355000 -0.679100 0.642400
vn 0.240300 0.912400 0.331300
vn 0.332500 0.876300 0.348600
vn 0.348000 0.869200 0.351200
vn -0.332500 0.876300 0.348600
vn -0.240300 0.912400 0.331300
vn -0.348000 0.869200 0.351200
vn -0.629400 0.635600 0.447100
vn -0.777500 0.257800 0.573600
vn -0.769500 0.033900 0.637800
vn -0.431500 0.825500 0.363700
vn 0.355000 -0.679100 0.642400
vn 0.798500 -0.034400 0.601000
vn 0.777500 0.257800 0.573600
vn 0.780900 0.239700 0.576800
vn 0.561700 -0.512200 0.649800
vn -0.695700 -0.303800 0.651000
vn -0.561700 -0.512200 0.649800
vn 0.431500 0.825500 0.363700
vn 0.629400 0.635600 0.447100
vn 0.000000 0.000000 1.000000
vn -0.886100 -0.199900 -0.418100
vn 0.000000 -1.000000 0.000000
usemtl None
s 1
f 1/1/1 2/2/2 3/3/3
f 4/4/4 5/5/5 6/6/6
f 7/7/7 5/8/7 8/9/7
f 1/1/8 9/10/8 7/11/8
f 9/10/9 10/12/9 6/6/9
f 9/10/10 11/13/10 10/12/10
f 12/14/11 13/15/12 14/16/11
f 15/17/13 16/18/13 13/15/13
f 12/14/11 3/3/3 13/15/12
f 11/13/14 3/3/14 12/14/14
f 9/10/15 1/1/15 3/3/15
f 11/13/16 9/10/16 3/3/16
f 8/9/17 5/5/17 13/15/17
f 11/13/18 4/4/19 6/6/20
f 4/4/4 17/19/21 5/5/5
f 18/20/22 14/16/22 19/21/22
f 18/20/22 12/14/22 14/16/22
f 5/5/23 17/19/23 13/15/23
f 11/13/24 12/14/24 18/20/24
f 19/21/25 14/16/25 17/19/25
f 20/22/26 21/23/26 22/24/26
f 16/18/27 22/24/27 21/23/27
f 2/2/2 15/17/28 3/3/3
f 13/15/12 3/3/3 15/17/28
f 20/22/22 23/25/22 24/26/22
f 15/17/29 25/27/30 16/18/31
f 20/22/32 26/28/33 2/2/34
f 26/28/33 15/17/33 2/2/34
f 27/29/35 23/25/35 22/24/35
f 20/22/22 24/26/22 26/28/22
f 28/30/36 26/28/36 24/26/36
f 16/18/31 25/27/30 22/24/27
f 22/24/35 23/25/35 20/22/35
f 26/28/36 28/30/36 25/27/36
f 1/1/37 8/9/37 21/23/37
f 2/2/1 1/1/1 21/23/1
f 16/18/37 21/23/37 8/9/37
f 16/18/13 8/9/13 13/15/13
f 25/27/30 15/17/29 26/28/29
f 21/23/26 20/22/32 2/2/34
f 11/13/18 17/19/18 4/4/18
f 29/31/38 7/7/39 30/7/40
f 29/7/38 31/7/41 7/7/39
f 32/7/42 31/7/42 29/7/42
f 6/6/43 29/31/44 33/32/45
f 29/31/46 6/6/47 34/33/48
f 35/34/49 36/35/50 29/31/51
f 35/34/52 29/31/46 34/33/48
f 29/31/38 30/36/40 37/37/53
f 38/7/54 41/31/55 29/38/56
f 29/31/57 37/37/57 38/38/57
f 39/7/58 32/7/59 29/7/51
f 40/39/60 33/32/45 29/31/44
f 40/39/61 29/31/56 41/40/55
f 25/27/62 27/29/62 22/24/62
f 25/27/62 28/30/62 27/29/62
f 13/15/63 17/19/63 14/16/63
f 19/21/18 17/19/18 18/20/18
f 17/19/18 11/13/18 18/20/18
f 28/30/64 24/26/64 27/29/64
f 27/29/64 24/26/64 23/25/64
f 39/7/58 29/35/51 36/7/50
f 10/12/18 11/13/18 6/6/20
f 6/7/62 5/5/62 7/7/62
f 9/10/62 6/6/62 7/7/62
l 9 41
l 5 39
l 9 38
l 5 36
